/* XPM */
static char * bitcoin16_xpm[] = {
"16 16 145 2",
"  	c None",
". 	c #337B3D",
"+ 	c #4E8654",
"@ 	c #6E9672",
"# 	c #4D8553",
"$ 	c #2B7936",
"% 	c #6D9672",
"& 	c #C6D3C8",
"* 	c #F0F3F0",
"= 	c #F9FAFA",
"- 	c #F9FAF9",
"; 	c #C7D3C8",
"> 	c #6E9671",
", 	c #8CA990",
"' 	c #C8CEE2",
") 	c #B9BBE4",
"! 	c #F7F5FB",
"~ 	c #ECECF5",
"{ 	c #CBCAE6",
"] 	c #FBFCFE",
"^ 	c #FDFDFE",
"/ 	c #E1E3E6",
"( 	c #88A68C",
"_ 	c #6F9773",
": 	c #EDF1EF",
"< 	c #A7AAED",
"[ 	c #4443E4",
"} 	c #E4E3F6",
"| 	c #E2E2F7",
"1 	c #716ED7",
"2 	c #D3D5ED",
"3 	c #E2DFF5",
"4 	c #ACA9D9",
"5 	c #EAEDEC",
"6 	c #6D956F",
"7 	c #C8D4C8",
"8 	c #F6F9FC",
"9 	c #8084E0",
"0 	c #8D90E7",
"a 	c #C0C5ED",
"b 	c #E0E4F2",
"c 	c #B4B1ED",
"d 	c #A19DDA",
"e 	c #928FE0",
"f 	c #E5E9F7",
"g 	c #ECEFF4",
"h 	c #BCC7C2",
"i 	c #277834",
"j 	c #F0F3EF",
"k 	c #E2E5F6",
"l 	c #9592DD",
"m 	c #D6D5F1",
"n 	c #8F97E3",
"o 	c #D7E0F1",
"p 	c #C3C3ED",
"q 	c #E0E1F5",
"r 	c #9E9CE9",
"s 	c #EDEFF9",
"t 	c #A0A4DA",
"u 	c #D1D2E3",
"v 	c #498450",
"w 	c #6F9772",
"x 	c #F8F9F8",
"y 	c #BEBBEA",
"z 	c #C3C3E7",
"A 	c #F4F6FB",
"B 	c #8186DD",
"C 	c #C8CDF2",
"D 	c #C0C3F0",
"E 	c #FCFDFF",
"F 	c #C5C4EC",
"G 	c #8D8FD9",
"H 	c #CAC8E5",
"I 	c #F6F7F6",
"J 	c #6A946E",
"K 	c #709774",
"L 	c #F0F3F7",
"M 	c #8784E2",
"N 	c #E2E4F6",
"O 	c #FDFDFF",
"P 	c #ADAEEB",
"Q 	c #9C9FE4",
"R 	c #BBC2EF",
"S 	c #FEFEFF",
"T 	c #F9F8FC",
"U 	c #CAC5E8",
"V 	c #F9F7FD",
"W 	c #F9FBF9",
"X 	c #4D8654",
"Y 	c #CDD4E8",
"Z 	c #5352E9",
"` 	c #DFE0FA",
" .	c #FEFFFE",
"..	c #D4D6F1",
"+.	c #5757DC",
"@.	c #B6BEEB",
"#.	c #FDFEFF",
"$.	c #FFFFFE",
"%.	c #FEFEFE",
"&.	c #FFFFFF",
"*.	c #EEF2EF",
"=.	c #4B8451",
"-.	c #52865D",
";.	c #979CD6",
">.	c #7E81E2",
",.	c #9394E2",
"'.	c #F4F4FB",
").	c #EDF2FB",
"!.	c #6266D9",
"~.	c #B7BCEB",
"{.	c #FDFEFE",
"].	c #FEFFFB",
"^.	c #FDFFFC",
"/.	c #C4D2C6",
"(.	c #277833",
"_.	c #6B6FD7",
":.	c #D5DCF0",
"<.	c #A2A4EE",
"[.	c #B0B1EC",
"}.	c #F7FAFC",
"|.	c #A0A7E1",
"1.	c #BABBE3",
"2.	c #FCFEFF",
"3.	c #EDF2EE",
"4.	c #7B7AD1",
"5.	c #BAC8C5",
"6.	c #D8E1E5",
"7.	c #A8A7DB",
"8.	c #F2F4F7",
"9.	c #DCE0F4",
"0.	c #D9DCEA",
"a.	c #FCFEFD",
"b.	c #EEF2EE",
"c.	c #88A78B",
"d.	c #6B956F",
"e.	c #C2CDC4",
"f.	c #EDF0EA",
"g.	c #F5F9F5",
"h.	c #F4F9F0",
"i.	c #EDF0ED",
"j.	c #C5D2C6",
"k.	c #297934",
"l.	c #4A8450",
"m.	c #69936D",
"n.	c #69946D",
"                                ",
"          . + @ @ # $           ",
"        % & * = - * ; >         ",
"      , ' ) ! ~ { ] ^ / (       ",
"    _ : < [ } | 1 2 3 4 5 6     ",
"  $ 7 8 9 0 a b c d e f g h i   ",
"  # j k l m n o p q r s t u v   ",
"  w x y z A B C D E F G H I J   ",
"  K L M N O P Q R S T U V W J   ",
"  X Y Z `  ...+.@.#.$.%.&.*.=.  ",
"  -.;.>.,.'.).!.~.{.$.].^./.(.  ",
"    _.:.<.[.}.|.1.2.&. .3.J     ",
"    4.5.6.7.8.9.0.a. .b.c.      ",
"        d.e.f.g.h.i.j.d.        ",
"          k.l.m.n.v (.          ",
"                                "};
