/* XPM */
static char * bitcoin32_xpm[] = {
"32 32 450 2",
"  	c None",
". 	c #02731F",
"+ 	c #01731F",
"@ 	c #027320",
"# 	c #067321",
"$ 	c #0D7424",
"% 	c #2E7A39",
"& 	c #538959",
"* 	c #7A9E7E",
"= 	c #8DAA8F",
"- 	c #8DAB90",
"; 	c #7A9E7D",
"> 	c #518857",
", 	c #2B7936",
"' 	c #157527",
") 	c #0A7422",
"! 	c #107425",
"~ 	c #558A5B",
"{ 	c #ABBFAD",
"] 	c #DCE4DD",
"^ 	c #F5F7F5",
"/ 	c #FBFCFB",
"( 	c #FCFDFD",
"_ 	c #FCFDFC",
": 	c #DCE4DC",
"< 	c #A9BEAB",
"[ 	c #528958",
"} 	c #0F7425",
"| 	c #377D40",
"1 	c #A9BFAB",
"2 	c #EEF2ED",
"3 	c #FDFEFD",
"4 	c #FFFEFF",
"5 	c #FFFFFF",
"6 	c #EDF2ED",
"7 	c #A7BCA8",
"8 	c #347D3D",
"9 	c #047320",
"0 	c #037320",
"a 	c #558B5B",
"b 	c #D0DBD3",
"c 	c #E3EAF8",
"d 	c #E5ECF9",
"e 	c #EAEBF8",
"f 	c #FDFAFE",
"g 	c #EFEFF6",
"h 	c #E1DFEE",
"i 	c #F7F6FE",
"j 	c #FEFEFF",
"k 	c #FBFBF7",
"l 	c #CFDACD",
"m 	c #508856",
"n 	c #DEE6DF",
"o 	c #EEEFFB",
"p 	c #797CD1",
"q 	c #5557CF",
"r 	c #736FC0",
"s 	c #E9E5F5",
"t 	c #FFFEFD",
"u 	c #C3C3E1",
"v 	c #5754A9",
"w 	c #C4C3EE",
"x 	c #F6FAFE",
"y 	c #FEFFFF",
"z 	c #FEFBFF",
"A 	c #E7E1F1",
"B 	c #ECE9F6",
"C 	c #D8E1DA",
"D 	c #518856",
"E 	c #D3DED4",
"F 	c #FEFEFE",
"G 	c #E6E8FC",
"H 	c #5757E1",
"I 	c #0A04F0",
"J 	c #423BDE",
"K 	c #DCD8F6",
"L 	c #FDFDFB",
"M 	c #FDFDFE",
"N 	c #C9C9F1",
"O 	c #2E2AC6",
"P 	c #6262CA",
"Q 	c #D5DDF4",
"R 	c #FCFEFF",
"S 	c #FEFDFF",
"T 	c #EEE5FD",
"U 	c #8E82CA",
"V 	c #AEA7D4",
"W 	c #F9F9FC",
"X 	c #D0DBD1",
"Y 	c #327C3C",
"Z 	c #CCD1F5",
"` 	c #2D2FE0",
" .	c #2029E3",
"..	c #2321E1",
"+.	c #C1C0EB",
"@.	c #FCFCFE",
"#.	c #FDFDFD",
"$.	c #CBCAF7",
"%.	c #5C54E7",
"&.	c #7A73D7",
"*.	c #7C7FC1",
"=.	c #E8E6FB",
"-.	c #F5F4FC",
";.	c #AEA6E3",
">.	c #5858BF",
",.	c #CACBEE",
"'.	c #FBFBFE",
").	c #FCFDF8",
"!.	c #A4BBA3",
"~.	c #117425",
"{.	c #0C7423",
"].	c #EEF2EF",
"^.	c #FBFDFE",
"/.	c #A3AAE2",
"(.	c #292CDA",
"_.	c #8898EF",
":.	c #3439DF",
"<.	c #8F8FDA",
"[.	c #F6F8FC",
"}.	c #FBFDFB",
"|.	c #CFCEF4",
"1.	c #736CE6",
"2.	c #D3CEF6",
"3.	c #736EC3",
"4.	c #A49BE5",
"5.	c #C0BBEE",
"6.	c #4F4EC6",
"7.	c #B2BBEB",
"8.	c #F5FBFE",
"9.	c #FEFFFD",
"0.	c #FBFDF2",
"a.	c #EBEFE8",
"b.	c #4F8755",
"c.	c #0B7423",
"d.	c #FEFEFC",
"e.	c #FEFFFC",
"f.	c #EEF7FC",
"g.	c #777EDE",
"h.	c #5951DC",
"i.	c #D4D3F8",
"j.	c #6D6AD7",
"k.	c #6468E5",
"l.	c #E5F1F9",
"m.	c #F2FEEC",
"n.	c #CCCFEE",
"o.	c #726DDF",
"p.	c #EEEDFD",
"q.	c #D1D0EC",
"r.	c #5954C1",
"s.	c #423DDF",
"t.	c #9B99E3",
"u.	c #F4F6FA",
"v.	c #F3FAFD",
"w.	c #C4C7E7",
"x.	c #EAE3F9",
"y.	c #A5BAA7",
"z.	c #087422",
"A.	c #2B7A36",
"B.	c #DCE5DC",
"C.	c #FFFFFD",
"D.	c #FEFFFE",
"E.	c #D7E3F5",
"F.	c #464ACD",
"G.	c #998EE7",
"H.	c #F3EFFB",
"I.	c #A19FE5",
"J.	c #393CE0",
"K.	c #C4D2F3",
"L.	c #ECFCF1",
"M.	c #C9CDED",
"N.	c #7471DA",
"O.	c #F0F1FC",
"P.	c #F7F9FD",
"Q.	c #A6A7E2",
"R.	c #4741E9",
"S.	c #DAD6FB",
"T.	c #FDFDF9",
"U.	c #FCFDFE",
"V.	c #D3DEF7",
"W.	c #5B5CBA",
"X.	c #BAB2E0",
"Y.	c #D5DDD9",
"Z.	c #287934",
"`.	c #F5F8F4",
" +	c #FFFFFE",
".+	c #FDFCFF",
"++	c #B6BAEA",
"@+	c #3734C5",
"#+	c #CDC8EF",
"$+	c #FBFBF2",
"%+	c #D2D3F5",
"&+	c #3B3BDA",
"*+	c #949CDA",
"=+	c #ECF9FA",
"-+	c #C9CBF1",
";+	c #7571DC",
">+	c #F0F2FC",
",+	c #E5E9F9",
"'+	c #7476D6",
")+	c #9690E5",
"!+	c #E8EBF9",
"~+	c #EBF1FA",
"{+	c #858AD2",
"]+	c #756ECF",
"^+	c #D8D1F2",
"/+	c #EFF1F3",
"(+	c #4A8550",
"_+	c #057320",
":+	c #FAFCF9",
"<+	c #FEFDFE",
"[+	c #F7F5FE",
"}+	c #8B88E0",
"|+	c #5957C8",
"1+	c #EBEAF5",
"2+	c #FEFEFA",
"3+	c #EAF0FB",
"4+	c #656ADC",
"5+	c #676AD2",
"6+	c #E2ECFB",
"7+	c #C7C9F4",
"8+	c #7470E2",
"9+	c #EEF1FE",
"0+	c #FDFEFF",
"a+	c #D4D5F4",
"b+	c #5A59CF",
"c+	c #A7ACEF",
"d+	c #ADB2E5",
"e+	c #6C68BA",
"f+	c #DDDAF2",
"g+	c #FCFBFB",
"h+	c #FAFBFA",
"i+	c #729A76",
"j+	c #177529",
"k+	c #1F762E",
"l+	c #8CAA8E",
"m+	c #FCFDFB",
"n+	c #E3DDF6",
"o+	c #4F4AD2",
"p+	c #9395DE",
"q+	c #F8F9FC",
"r+	c #F7FBFE",
"s+	c #9EA7EB",
"t+	c #3737CE",
"u+	c #C9D0F0",
"v+	c #C7CAF2",
"w+	c #7172DF",
"x+	c #EAF0FE",
"y+	c #FAFAFE",
"z+	c #B6B3EA",
"A+	c #4842C6",
"B+	c #4843BE",
"C+	c #BFB9E5",
"D+	c #FCFCFA",
"E+	c #FEFEFB",
"F+	c #FAFCFA",
"G+	c #85A588",
"H+	c #307A3B",
"I+	c #8CA98E",
"J+	c #FBFAFE",
"K+	c #B9B2E5",
"L+	c #302BD0",
"M+	c #BDC1EA",
"N+	c #CBD3F4",
"O+	c #3636D9",
"P+	c #989DD9",
"Q+	c #C4C7F0",
"R+	c #6E74DD",
"S+	c #E7F0FE",
"T+	c #F2EFFD",
"U+	c #9C92D6",
"V+	c #968BD0",
"W+	c #F3EDFC",
"X+	c #1A762A",
"Y+	c #799E7C",
"Z+	c #F8FBFA",
"`+	c #EDF3FC",
" @	c #7C7DE5",
".@	c #3E3CE2",
"+@	c #D6DAF5",
"@@	c #ECEAFC",
"#@	c #615FE0",
"$@	c #5C5CDC",
"%@	c #B2B4ED",
"&@	c #6E74DC",
"*@	c #ECE9F8",
"=@	c #E5E0F6",
"-@	c #719975",
";@	c #0E7424",
">@	c #4F8856",
",@	c #F0F6F3",
"'@	c #D5DBF6",
")@	c #4343D9",
"!@	c #4D49F7",
"~@	c #E1E2FE",
"{@	c #FAF9FD",
"]@	c #8F94E3",
"^@	c #2D2BDE",
"/@	c #7B7ADC",
"(@	c #686ED9",
"_@	c #E6F0FD",
":@	c #F2F6F3",
"<@	c #48844F",
"[@	c #20772F",
"}@	c #317B3A",
"|@	c #D8E3DD",
"1@	c #B0B2EC",
"2@	c #231DE1",
"3@	c #251EF1",
"4@	c #A8A9F1",
"5@	c #F8F9FE",
"6@	c #FBFCFC",
"7@	c #B8C2E7",
"8@	c #2525E2",
"9@	c #3F3DD2",
"0@	c #646AD6",
"a@	c #E5F0FC",
"b@	c #FDFFFF",
"c@	c #D8E0D8",
"d@	c #277833",
"e@	c #317B3B",
"f@	c #CBD4D9",
"g@	c #7F7CE2",
"h@	c #2D29D6",
"i@	c #4D49EA",
"j@	c #4E4CD3",
"k@	c #D2D5F3",
"l@	c #FDFDFF",
"m@	c #D9E5F7",
"n@	c #494ED8",
"o@	c #2D2BD1",
"p@	c #6268D5",
"q@	c #FFFEFE",
"r@	c #FFFFFC",
"s@	c #FFFFF8",
"t@	c #A3BAA5",
"u@	c #077421",
"v@	c #42804B",
"w@	c #AEB5D1",
"x@	c #4B46DB",
"y@	c #6E72D2",
"z@	c #C6CDF4",
"A@	c #5958D6",
"B@	c #7773DD",
"C@	c #E5E5F8",
"D@	c #FDFCFE",
"E@	c #EDF7FC",
"F@	c #878FE2",
"G@	c #1915D2",
"H@	c #6361D9",
"I@	c #EBF0FD",
"J@	c #FCFFF8",
"K@	c #F9FFF9",
"L@	c #EAF0EB",
"M@	c #4B8652",
"N@	c #87A593",
"O@	c #8C93D0",
"P@	c #2A25D3",
"Q@	c #ABB6E4",
"R@	c #EEF8F9",
"S@	c #A6A6F3",
"T@	c #2D26DF",
"U@	c #928FE3",
"V@	c #F0F1FE",
"W@	c #F7FCFC",
"X@	c #BDC8EE",
"Y@	c #2D2DD0",
"Z@	c #635ED5",
"`@	c #EEEFFC",
" #	c #FCFFFF",
".#	c #FDFFFD",
"+#	c #A0B9A2",
"@#	c #D7E0F8",
"##	c #6F70E5",
"$#	c #3838D1",
"%#	c #CFD7F2",
"&#	c #F9FEF8",
"*#	c #E3E8FD",
"=#	c #7174E9",
"-#	c #3736D9",
";#	c #B8BCF3",
">#	c #F8FBFD",
",#	c #FCFFFB",
"'#	c #DCE8F5",
")#	c #4E53CA",
"!#	c #6361BB",
"~#	c #EEF0F8",
"{#	c #CCD9CD",
"]#	c #2F7B3A",
"^#	c #B4BAEA",
"/#	c #3533CE",
"(#	c #6360DF",
"_#	c #DDE4F2",
":#	c #E9F0E8",
"<#	c #F6FDF7",
"[#	c #CBD4F2",
"}#	c #4C4CC6",
"|#	c #6666C0",
"1#	c #E2E6F0",
"2#	c #EFF6FE",
"3#	c #868ADF",
"4#	c #797AC0",
"5#	c #E6E9F0",
"6#	c #FDFFFE",
"7#	c #FBFFFE",
"8#	c #D8E2D9",
"9#	c #A8ABC6",
"0#	c #8480BF",
"a#	c #A09DD1",
"b#	c #98AEA3",
"c#	c #568B5B",
"d#	c #CCDBC8",
"e#	c #F0F6F4",
"f#	c #C7C5E9",
"g#	c #C6C3E8",
"h#	c #F0F4F5",
"i#	c #F8FBFE",
"j#	c #ECEFF9",
"k#	c #EAECF6",
"l#	c #F6FBF9",
"m#	c #097422",
"n#	c #327C3B",
"o#	c #A4BBA6",
"p#	c #EBECEC",
"q#	c #FAFAFA",
"r#	c #FBFEF7",
"s#	c #FEFBF8",
"t#	c #F6FEFB",
"u#	c #F5FEEF",
"v#	c #FAFEF2",
"w#	c #FEFBFD",
"x#	c #EBF0EB",
"y#	c #A0B9A3",
"z#	c #307B3A",
"A#	c #528857",
"B#	c #A6BBA6",
"C#	c #D8E1D5",
"D#	c #F3F2F2",
"E#	c #F9FAF8",
"F#	c #F8FDF5",
"G#	c #F9FDF4",
"H#	c #FAFBF8",
"I#	c #F2F5F2",
"J#	c #D7E0D8",
"K#	c #4E8754",
"L#	c #0C7424",
"M#	c #498450",
"N#	c #85A587",
"O#	c #84A588",
"P#	c #709974",
"Q#	c #267833",
"                                                                ",
"                                                                ",
"                        . . + . @ + + +                         ",
"                    # $ % & * = - ; > , ' )                     ",
"                + ! ~ { ] ^ / ( _ / ^ : < [ } !                 ",
"              . | 1 2 3 4 5 5 5 5 5 5 5 3 6 7 8 9               ",
"            0 a b c d e f 5 5 g h i j 5 5 5 k l m 0             ",
"          . a n o p q r s t j u v w x y 5 z A B C D .           ",
"        + | E F G H I J K L M N O P Q R S T U V W X Y !         ",
"        ! 1 _ y Z `  ...+.@.#.$.%.&.*.=.-.;.>.,.'.).!.~.        ",
"      {.~ ].5 ^./.(._.:.<.[.}.|.1.2.3.4.5.6.7.8.9.0.a.b.0       ",
"      c.{ d.e.f.g.h.i.j.k.l.m.n.o.p.q.r.s.t.u.y v.w.x.y.z.      ",
"    0 A.B.C.D.E.F.G.H.I.J.K.L.M.N.O.P.Q.R.S.T.U.V.W.X.Y.Z.+     ",
"    + > `. +.+++@+#+$+%+&+*+=+-+;+>+y ,+'+)+!+~+{+]+^+/+(+0     ",
"    _+; :+<+[+}+|+1+2+3+4+5+6+7+8+9+5 0+a+b+c+d+e+f+g+h+i+j+    ",
"    k+l+m+S n+o+p+q+5 r+s+t+u+v+w+x+y 4 y+z+A+B+C+D+E+F+G+)     ",
"    H+I+/ J+K+L+M+^.5 R N+O+P+Q+R+S+y 5 E+T+U+V+W+ +5 _ G+.     ",
"    X+Y+Z+`+ @.@+@5 5 5 @@#@$@%@&@S+y 5  +F *@=@S 5 5 F+-@;@    ",
"    } >@,@'@)@!@~@5 5 5 {@]@^@/@(@_@y 5 5  + +4 5 5 5 :@<@[@    ",
"    0 }@|@1@2@3@4@5@9.5 6@7@8@9@0@a@b@4 4  + + +5 4 5 c@d@.     ",
"      e@f@g@h@i@j@k@}. +l@m@n@o@p@_@y q@t 4 r@s@r@5 3 t@u@      ",
"      v@w@x@y@z@A@B@C@F D@E@F@G@H@I@y D.C.5  +J@K@5 L@M@+       ",
"      N@O@P@Q@R@S@T@U@V@j W@X@Y@Z@`@y  #5 5 5 .#D._ +#{.        ",
"      @###$#%#&#*#=#-#;#>#,#'#)#!#~#y  #5 5 5 5 F {#]#+         ",
"      ^#/#(#_#:#<#[#}#|#1#D.2#3#4#5#6#7#5 5 5 F 8#M@0           ",
"      9#0#a#b#c#d#e#f#g#h#d.i#j#k#l#6#.#5 5 _ {#M@@             ",
"              m#n#o#p#q#r#s#_ t#u#v#w#F 3 x#y#z#.               ",
"                + ! A#B#C#D#E#F#G#H#I#J#t@K#L#;@                ",
"                    9 $ Z.M#-@N#O#P#<@Q#u@+                     ",
"                        + + + + + + + +                         ",
"                                                                ",
"                                                                "};
